<mxfile host="app.diagrams.net" modified="2022-01-25T02:33:22.813Z" agent="5.0 (Windows NT 10.0; Win64; x64) AppleWebKit/537.36 (KHTML, like Gecko) Chrome/97.0.4692.99 Safari/537.36" etag="oJjTLms1MI8Nh5VxFgWv" version="16.4.5" type="github">
  <diagram id="SU5bKVWl5JrV1BomC_x-" name="Page-1">
    <mxGraphModel dx="1578" dy="945" grid="1" gridSize="10" guides="1" tooltips="1" connect="1" arrows="1" fold="1" page="1" pageScale="1" pageWidth="827" pageHeight="1169" math="0" shadow="0">
      <root>
        <mxCell id="0" />
        <mxCell id="1" parent="0" />
        <mxCell id="-edVvn-x7W4A-X9uvPil-65" value="" style="shape=ext;double=1;rounded=0;whiteSpace=wrap;html=1;fillColor=default;" vertex="1" parent="1">
          <mxGeometry y="10" width="960" height="1160" as="geometry" />
        </mxCell>
        <mxCell id="-edVvn-x7W4A-X9uvPil-19" value="" style="edgeStyle=orthogonalEdgeStyle;rounded=0;orthogonalLoop=1;jettySize=auto;html=1;" edge="1" parent="1" source="-edVvn-x7W4A-X9uvPil-2" target="-edVvn-x7W4A-X9uvPil-18">
          <mxGeometry relative="1" as="geometry" />
        </mxCell>
        <mxCell id="-edVvn-x7W4A-X9uvPil-2" value="" style="ellipse;html=1;shape=startState;fillColor=#000000;strokeColor=#ff0000;" vertex="1" parent="1">
          <mxGeometry x="105" y="90" width="30" height="30" as="geometry" />
        </mxCell>
        <mxCell id="-edVvn-x7W4A-X9uvPil-11" value="" style="edgeStyle=orthogonalEdgeStyle;rounded=0;orthogonalLoop=1;jettySize=auto;html=1;" edge="1" parent="1" target="-edVvn-x7W4A-X9uvPil-10">
          <mxGeometry relative="1" as="geometry">
            <mxPoint x="120.00000000000011" y="220" as="sourcePoint" />
          </mxGeometry>
        </mxCell>
        <mxCell id="-edVvn-x7W4A-X9uvPil-17" value="" style="edgeStyle=orthogonalEdgeStyle;rounded=0;orthogonalLoop=1;jettySize=auto;html=1;" edge="1" parent="1" source="-edVvn-x7W4A-X9uvPil-10" target="-edVvn-x7W4A-X9uvPil-16">
          <mxGeometry relative="1" as="geometry" />
        </mxCell>
        <mxCell id="-edVvn-x7W4A-X9uvPil-39" value="" style="edgeStyle=orthogonalEdgeStyle;rounded=0;orthogonalLoop=1;jettySize=auto;html=1;" edge="1" parent="1" source="-edVvn-x7W4A-X9uvPil-10" target="-edVvn-x7W4A-X9uvPil-38">
          <mxGeometry relative="1" as="geometry" />
        </mxCell>
        <mxCell id="-edVvn-x7W4A-X9uvPil-10" value="" style="rhombus;whiteSpace=wrap;html=1;fillColor=#fff2cc;strokeColor=#d6b656;rounded=1;arcSize=10;" vertex="1" parent="1">
          <mxGeometry x="80" y="280" width="80" height="80" as="geometry" />
        </mxCell>
        <mxCell id="-edVvn-x7W4A-X9uvPil-24" value="" style="edgeStyle=orthogonalEdgeStyle;rounded=0;orthogonalLoop=1;jettySize=auto;html=1;" edge="1" parent="1" source="-edVvn-x7W4A-X9uvPil-16" target="-edVvn-x7W4A-X9uvPil-23">
          <mxGeometry relative="1" as="geometry" />
        </mxCell>
        <mxCell id="-edVvn-x7W4A-X9uvPil-16" value="" style="rounded=1;whiteSpace=wrap;html=1;fillColor=#fff2cc;strokeColor=#d6b656;arcSize=10;" vertex="1" parent="1">
          <mxGeometry x="220" y="290" width="120" height="60" as="geometry" />
        </mxCell>
        <mxCell id="-edVvn-x7W4A-X9uvPil-18" value="" style="rounded=1;whiteSpace=wrap;html=1;fillColor=#fff2cc;strokeColor=#d6b656;" vertex="1" parent="1">
          <mxGeometry x="60" y="185" width="120" height="60" as="geometry" />
        </mxCell>
        <mxCell id="-edVvn-x7W4A-X9uvPil-20" value="&lt;b&gt;Menu Kamus&lt;/b&gt;" style="text;html=1;resizable=0;autosize=1;align=center;verticalAlign=middle;points=[];fillColor=none;strokeColor=none;rounded=0;" vertex="1" parent="1">
          <mxGeometry x="70" y="205" width="90" height="20" as="geometry" />
        </mxCell>
        <mxCell id="-edVvn-x7W4A-X9uvPil-21" value="&lt;b&gt;Ya&lt;/b&gt;" style="text;html=1;resizable=0;autosize=1;align=center;verticalAlign=middle;points=[];fillColor=none;strokeColor=none;rounded=0;" vertex="1" parent="1">
          <mxGeometry x="160" y="300" width="30" height="20" as="geometry" />
        </mxCell>
        <mxCell id="-edVvn-x7W4A-X9uvPil-22" value="&lt;b&gt;Cari Kata&lt;/b&gt;" style="text;html=1;resizable=0;autosize=1;align=center;verticalAlign=middle;points=[];fillColor=none;strokeColor=none;rounded=0;" vertex="1" parent="1">
          <mxGeometry x="245" y="310" width="70" height="20" as="geometry" />
        </mxCell>
        <mxCell id="-edVvn-x7W4A-X9uvPil-26" value="" style="edgeStyle=orthogonalEdgeStyle;rounded=0;orthogonalLoop=1;jettySize=auto;html=1;" edge="1" parent="1" source="-edVvn-x7W4A-X9uvPil-23" target="-edVvn-x7W4A-X9uvPil-25">
          <mxGeometry relative="1" as="geometry" />
        </mxCell>
        <mxCell id="-edVvn-x7W4A-X9uvPil-23" value="" style="rounded=1;whiteSpace=wrap;html=1;fillColor=#fff2cc;strokeColor=#d6b656;arcSize=10;" vertex="1" parent="1">
          <mxGeometry x="420" y="290" width="120" height="60" as="geometry" />
        </mxCell>
        <mxCell id="-edVvn-x7W4A-X9uvPil-28" value="" style="edgeStyle=orthogonalEdgeStyle;rounded=0;orthogonalLoop=1;jettySize=auto;html=1;" edge="1" parent="1" source="-edVvn-x7W4A-X9uvPil-25" target="-edVvn-x7W4A-X9uvPil-27">
          <mxGeometry relative="1" as="geometry" />
        </mxCell>
        <mxCell id="-edVvn-x7W4A-X9uvPil-25" value="" style="rounded=1;whiteSpace=wrap;html=1;fillColor=#fff2cc;strokeColor=#d6b656;arcSize=10;" vertex="1" parent="1">
          <mxGeometry x="620" y="290" width="120" height="60" as="geometry" />
        </mxCell>
        <mxCell id="-edVvn-x7W4A-X9uvPil-30" value="" style="edgeStyle=orthogonalEdgeStyle;rounded=0;orthogonalLoop=1;jettySize=auto;html=1;" edge="1" parent="1" source="-edVvn-x7W4A-X9uvPil-27" target="-edVvn-x7W4A-X9uvPil-29">
          <mxGeometry relative="1" as="geometry" />
        </mxCell>
        <mxCell id="-edVvn-x7W4A-X9uvPil-32" value="" style="edgeStyle=orthogonalEdgeStyle;rounded=0;orthogonalLoop=1;jettySize=auto;html=1;" edge="1" parent="1" source="-edVvn-x7W4A-X9uvPil-27" target="-edVvn-x7W4A-X9uvPil-31">
          <mxGeometry relative="1" as="geometry" />
        </mxCell>
        <mxCell id="-edVvn-x7W4A-X9uvPil-27" value="" style="rhombus;whiteSpace=wrap;html=1;fillColor=#fff2cc;strokeColor=#d6b656;rounded=1;arcSize=10;" vertex="1" parent="1">
          <mxGeometry x="640" y="420" width="80" height="80" as="geometry" />
        </mxCell>
        <mxCell id="-edVvn-x7W4A-X9uvPil-29" value="" style="shape=waypoint;sketch=0;size=6;pointerEvents=1;points=[];fillColor=#fff2cc;resizable=0;rotatable=0;perimeter=centerPerimeter;snapToPoint=1;strokeColor=#d6b656;rounded=1;arcSize=10;" vertex="1" parent="1">
          <mxGeometry x="540" y="565" width="40" height="40" as="geometry" />
        </mxCell>
        <mxCell id="-edVvn-x7W4A-X9uvPil-31" value="" style="shape=waypoint;sketch=0;size=6;pointerEvents=1;points=[];fillColor=#fff2cc;resizable=0;rotatable=0;perimeter=centerPerimeter;snapToPoint=1;strokeColor=#d6b656;rounded=1;arcSize=10;" vertex="1" parent="1">
          <mxGeometry x="780" y="565" width="40" height="40" as="geometry" />
        </mxCell>
        <mxCell id="-edVvn-x7W4A-X9uvPil-37" value="" style="edgeStyle=orthogonalEdgeStyle;rounded=0;orthogonalLoop=1;jettySize=auto;html=1;" edge="1" parent="1" source="-edVvn-x7W4A-X9uvPil-33" target="-edVvn-x7W4A-X9uvPil-36">
          <mxGeometry relative="1" as="geometry">
            <Array as="points">
              <mxPoint x="480" y="620" />
            </Array>
          </mxGeometry>
        </mxCell>
        <mxCell id="-edVvn-x7W4A-X9uvPil-33" value="" style="rounded=1;whiteSpace=wrap;html=1;fillColor=#fff2cc;strokeColor=#d6b656;sketch=0;arcSize=10;" vertex="1" parent="1">
          <mxGeometry x="500" y="590" width="120" height="60" as="geometry" />
        </mxCell>
        <mxCell id="-edVvn-x7W4A-X9uvPil-60" value="" style="edgeStyle=orthogonalEdgeStyle;rounded=0;orthogonalLoop=1;jettySize=auto;html=1;" edge="1" parent="1" source="-edVvn-x7W4A-X9uvPil-35" target="-edVvn-x7W4A-X9uvPil-59">
          <mxGeometry relative="1" as="geometry" />
        </mxCell>
        <mxCell id="-edVvn-x7W4A-X9uvPil-35" value="" style="rounded=1;whiteSpace=wrap;html=1;fillColor=#fff2cc;strokeColor=#d6b656;sketch=0;arcSize=10;" vertex="1" parent="1">
          <mxGeometry x="740" y="590" width="120" height="60" as="geometry" />
        </mxCell>
        <mxCell id="-edVvn-x7W4A-X9uvPil-36" value="" style="shape=waypoint;sketch=0;size=6;pointerEvents=1;points=[];fillColor=#fff2cc;resizable=0;rotatable=0;perimeter=centerPerimeter;snapToPoint=1;strokeColor=#d6b656;rounded=1;arcSize=10;" vertex="1" parent="1">
          <mxGeometry x="460" y="330" width="40" height="40" as="geometry" />
        </mxCell>
        <mxCell id="-edVvn-x7W4A-X9uvPil-38" value="" style="shape=waypoint;sketch=0;size=6;pointerEvents=1;points=[];fillColor=#fff2cc;resizable=0;rotatable=0;perimeter=centerPerimeter;snapToPoint=1;strokeColor=#d6b656;rounded=1;arcSize=10;" vertex="1" parent="1">
          <mxGeometry x="100" y="720" width="40" height="40" as="geometry" />
        </mxCell>
        <mxCell id="-edVvn-x7W4A-X9uvPil-43" value="" style="edgeStyle=orthogonalEdgeStyle;rounded=0;orthogonalLoop=1;jettySize=auto;html=1;" edge="1" parent="1" source="-edVvn-x7W4A-X9uvPil-41" target="-edVvn-x7W4A-X9uvPil-42">
          <mxGeometry relative="1" as="geometry" />
        </mxCell>
        <mxCell id="-edVvn-x7W4A-X9uvPil-41" value="" style="rhombus;whiteSpace=wrap;html=1;fillColor=#fff2cc;strokeColor=#d6b656;rounded=1;arcSize=10;" vertex="1" parent="1">
          <mxGeometry x="85" y="740" width="70" height="70" as="geometry" />
        </mxCell>
        <mxCell id="-edVvn-x7W4A-X9uvPil-51" value="" style="edgeStyle=orthogonalEdgeStyle;rounded=0;orthogonalLoop=1;jettySize=auto;html=1;" edge="1" parent="1" source="-edVvn-x7W4A-X9uvPil-42" target="-edVvn-x7W4A-X9uvPil-50">
          <mxGeometry relative="1" as="geometry" />
        </mxCell>
        <mxCell id="-edVvn-x7W4A-X9uvPil-42" value="" style="rounded=1;whiteSpace=wrap;html=1;fillColor=#fff2cc;strokeColor=#d6b656;arcSize=10;" vertex="1" parent="1">
          <mxGeometry x="260" y="745" width="120" height="60" as="geometry" />
        </mxCell>
        <mxCell id="-edVvn-x7W4A-X9uvPil-47" value="" style="edgeStyle=orthogonalEdgeStyle;rounded=0;orthogonalLoop=1;jettySize=auto;html=1;" edge="1" parent="1" source="-edVvn-x7W4A-X9uvPil-44" target="-edVvn-x7W4A-X9uvPil-46">
          <mxGeometry relative="1" as="geometry">
            <Array as="points">
              <mxPoint x="120" y="925" />
            </Array>
          </mxGeometry>
        </mxCell>
        <mxCell id="-edVvn-x7W4A-X9uvPil-44" value="" style="shape=waypoint;sketch=0;size=6;pointerEvents=1;points=[];fillColor=#fff2cc;resizable=0;rotatable=0;perimeter=centerPerimeter;snapToPoint=1;strokeColor=#d6b656;rounded=1;arcSize=10;" vertex="1" parent="1">
          <mxGeometry x="100" y="790" width="40" height="40" as="geometry" />
        </mxCell>
        <mxCell id="-edVvn-x7W4A-X9uvPil-49" value="" style="edgeStyle=orthogonalEdgeStyle;rounded=0;orthogonalLoop=1;jettySize=auto;html=1;" edge="1" parent="1" source="-edVvn-x7W4A-X9uvPil-46" target="-edVvn-x7W4A-X9uvPil-48">
          <mxGeometry relative="1" as="geometry">
            <Array as="points">
              <mxPoint x="420" y="925" />
              <mxPoint x="420" y="925" />
            </Array>
          </mxGeometry>
        </mxCell>
        <mxCell id="-edVvn-x7W4A-X9uvPil-46" value="" style="rounded=1;whiteSpace=wrap;html=1;fillColor=#fff2cc;strokeColor=#d6b656;sketch=0;arcSize=10;" vertex="1" parent="1">
          <mxGeometry x="180" y="895" width="120" height="60" as="geometry" />
        </mxCell>
        <mxCell id="-edVvn-x7W4A-X9uvPil-64" value="" style="edgeStyle=orthogonalEdgeStyle;rounded=0;orthogonalLoop=1;jettySize=auto;html=1;" edge="1" parent="1" source="-edVvn-x7W4A-X9uvPil-48" target="-edVvn-x7W4A-X9uvPil-63">
          <mxGeometry relative="1" as="geometry" />
        </mxCell>
        <mxCell id="-edVvn-x7W4A-X9uvPil-48" value="" style="rounded=1;whiteSpace=wrap;html=1;fillColor=#fff2cc;strokeColor=#d6b656;sketch=0;arcSize=10;" vertex="1" parent="1">
          <mxGeometry x="500" y="890" width="120" height="60" as="geometry" />
        </mxCell>
        <mxCell id="-edVvn-x7W4A-X9uvPil-62" value="" style="edgeStyle=orthogonalEdgeStyle;rounded=0;orthogonalLoop=1;jettySize=auto;html=1;" edge="1" parent="1" source="-edVvn-x7W4A-X9uvPil-50" target="-edVvn-x7W4A-X9uvPil-61">
          <mxGeometry relative="1" as="geometry" />
        </mxCell>
        <mxCell id="-edVvn-x7W4A-X9uvPil-50" value="" style="rounded=1;whiteSpace=wrap;html=1;fillColor=#fff2cc;strokeColor=#d6b656;arcSize=10;" vertex="1" parent="1">
          <mxGeometry x="500" y="745" width="120" height="60" as="geometry" />
        </mxCell>
        <mxCell id="-edVvn-x7W4A-X9uvPil-52" value="" style="ellipse;html=1;shape=endState;fillColor=#000000;strokeColor=#ff0000;" vertex="1" parent="1">
          <mxGeometry x="785" y="1060" width="30" height="30" as="geometry" />
        </mxCell>
        <mxCell id="-edVvn-x7W4A-X9uvPil-58" value="" style="edgeStyle=orthogonalEdgeStyle;html=1;verticalAlign=bottom;endArrow=open;endSize=8;strokeColor=#ff0000;rounded=0;" edge="1" source="-edVvn-x7W4A-X9uvPil-57" parent="1">
          <mxGeometry relative="1" as="geometry">
            <mxPoint x="800" y="1060" as="targetPoint" />
          </mxGeometry>
        </mxCell>
        <mxCell id="-edVvn-x7W4A-X9uvPil-59" value="" style="shape=waypoint;sketch=0;size=6;pointerEvents=1;points=[];fillColor=#fff2cc;resizable=0;rotatable=0;perimeter=centerPerimeter;snapToPoint=1;strokeColor=#d6b656;rounded=1;arcSize=10;" vertex="1" parent="1">
          <mxGeometry x="780" y="965" width="40" height="40" as="geometry" />
        </mxCell>
        <mxCell id="-edVvn-x7W4A-X9uvPil-61" value="" style="shape=waypoint;sketch=0;size=6;pointerEvents=1;points=[];fillColor=#fff2cc;resizable=0;rotatable=0;perimeter=centerPerimeter;snapToPoint=1;strokeColor=#d6b656;rounded=1;arcSize=10;" vertex="1" parent="1">
          <mxGeometry x="770" y="965" width="40" height="40" as="geometry" />
        </mxCell>
        <mxCell id="-edVvn-x7W4A-X9uvPil-63" value="" style="shape=waypoint;sketch=0;size=6;pointerEvents=1;points=[];fillColor=#fff2cc;resizable=0;rotatable=0;perimeter=centerPerimeter;snapToPoint=1;strokeColor=#d6b656;rounded=1;arcSize=10;" vertex="1" parent="1">
          <mxGeometry x="760" y="965" width="40" height="40" as="geometry" />
        </mxCell>
        <mxCell id="-edVvn-x7W4A-X9uvPil-66" value="" style="shape=ext;double=1;rounded=0;whiteSpace=wrap;html=1;fillColor=none;" vertex="1" parent="1">
          <mxGeometry x="40" y="50" width="880" height="1090" as="geometry" />
        </mxCell>
        <mxCell id="-edVvn-x7W4A-X9uvPil-57" value="" style="shape=line;html=1;strokeWidth=6;strokeColor=#ff0000;" vertex="1" parent="1">
          <mxGeometry x="700" y="980" width="200" height="10" as="geometry" />
        </mxCell>
        <mxCell id="-edVvn-x7W4A-X9uvPil-68" value="" style="line;strokeWidth=2;direction=south;html=1;fillColor=none;" vertex="1" parent="1">
          <mxGeometry x="400" y="40" width="10" height="1090" as="geometry" />
        </mxCell>
        <mxCell id="-edVvn-x7W4A-X9uvPil-69" value="" style="line;strokeWidth=2;html=1;fillColor=none;" vertex="1" parent="1">
          <mxGeometry x="40" y="80" width="880" height="10" as="geometry" />
        </mxCell>
        <mxCell id="-edVvn-x7W4A-X9uvPil-70" value="&lt;b&gt;&lt;font style=&quot;font-size: 14px&quot;&gt;Pengguna&lt;/font&gt;&lt;/b&gt;" style="text;html=1;resizable=0;autosize=1;align=center;verticalAlign=middle;points=[];fillColor=none;strokeColor=none;rounded=0;" vertex="1" parent="1">
          <mxGeometry x="180" y="60" width="80" height="20" as="geometry" />
        </mxCell>
        <mxCell id="-edVvn-x7W4A-X9uvPil-71" value="&lt;b&gt;&lt;font style=&quot;font-size: 14px&quot;&gt;Sistem&lt;/font&gt;&lt;/b&gt;" style="text;html=1;resizable=0;autosize=1;align=center;verticalAlign=middle;points=[];fillColor=none;strokeColor=none;rounded=0;" vertex="1" parent="1">
          <mxGeometry x="650" y="60" width="60" height="20" as="geometry" />
        </mxCell>
        <mxCell id="-edVvn-x7W4A-X9uvPil-72" value="&lt;font size=&quot;1&quot;&gt;&lt;b&gt;masukan kata&lt;/b&gt;&lt;/font&gt;" style="text;html=1;resizable=0;autosize=1;align=center;verticalAlign=middle;points=[];fillColor=none;strokeColor=none;rounded=0;" vertex="1" parent="1">
          <mxGeometry x="440" y="310" width="80" height="20" as="geometry" />
        </mxCell>
        <mxCell id="-edVvn-x7W4A-X9uvPil-73" value="&lt;font size=&quot;1&quot;&gt;&lt;b&gt;Menerjemahkan&lt;/b&gt;&lt;/font&gt;" style="text;html=1;resizable=0;autosize=1;align=center;verticalAlign=middle;points=[];fillColor=none;strokeColor=none;rounded=0;" vertex="1" parent="1">
          <mxGeometry x="635" y="310" width="90" height="20" as="geometry" />
        </mxCell>
        <mxCell id="-edVvn-x7W4A-X9uvPil-74" value="&lt;font&gt;&lt;font style=&quot;font-size: 10px&quot;&gt;&lt;b&gt;Apakah ketemu&lt;/b&gt;&lt;/font&gt;&lt;br&gt;&lt;/font&gt;" style="text;html=1;resizable=0;autosize=1;align=center;verticalAlign=middle;points=[];fillColor=none;strokeColor=none;rounded=0;" vertex="1" parent="1">
          <mxGeometry x="635" y="450" width="90" height="20" as="geometry" />
        </mxCell>
        <mxCell id="-edVvn-x7W4A-X9uvPil-76" value="&lt;font&gt;&lt;font style=&quot;font-size: 10px&quot;&gt;&lt;b&gt;(Tidak)&lt;/b&gt;&lt;/font&gt;&lt;br&gt;&lt;/font&gt;" style="text;html=1;resizable=0;autosize=1;align=center;verticalAlign=middle;points=[];fillColor=none;strokeColor=none;rounded=0;" vertex="1" parent="1">
          <mxGeometry x="560" y="530" width="50" height="20" as="geometry" />
        </mxCell>
        <mxCell id="-edVvn-x7W4A-X9uvPil-77" value="&lt;font&gt;&lt;font style=&quot;font-size: 10px&quot;&gt;&lt;b&gt;(Ya)&lt;/b&gt;&lt;/font&gt;&lt;br&gt;&lt;/font&gt;" style="text;html=1;resizable=0;autosize=1;align=center;verticalAlign=middle;points=[];fillColor=none;strokeColor=none;rounded=0;" vertex="1" parent="1">
          <mxGeometry x="810" y="530" width="30" height="20" as="geometry" />
        </mxCell>
        <mxCell id="-edVvn-x7W4A-X9uvPil-78" value="&lt;font&gt;&lt;font style=&quot;font-size: 10px&quot;&gt;&lt;b&gt;Menampilkan kosa kata&lt;br&gt;&amp;nbsp;kosong&lt;/b&gt;&lt;/font&gt;&lt;br&gt;&lt;/font&gt;" style="text;html=1;resizable=0;autosize=1;align=center;verticalAlign=middle;points=[];fillColor=none;strokeColor=none;rounded=0;" vertex="1" parent="1">
          <mxGeometry x="495" y="605" width="130" height="30" as="geometry" />
        </mxCell>
        <mxCell id="-edVvn-x7W4A-X9uvPil-79" value="&lt;font&gt;&lt;font style=&quot;font-size: 10px&quot;&gt;&lt;b&gt;Menampilkan arti kata&lt;/b&gt;&lt;/font&gt;&lt;br&gt;&lt;/font&gt;" style="text;html=1;resizable=0;autosize=1;align=center;verticalAlign=middle;points=[];fillColor=none;strokeColor=none;rounded=0;" vertex="1" parent="1">
          <mxGeometry x="740" y="610" width="120" height="20" as="geometry" />
        </mxCell>
        <mxCell id="-edVvn-x7W4A-X9uvPil-80" value="&lt;font&gt;&lt;span style=&quot;font-size: 10px&quot;&gt;&lt;b&gt;tampil kata-kata&lt;/b&gt;&lt;/span&gt;&lt;br&gt;&lt;/font&gt;" style="text;html=1;resizable=0;autosize=1;align=center;verticalAlign=middle;points=[];fillColor=none;strokeColor=none;rounded=0;" vertex="1" parent="1">
          <mxGeometry x="515" y="765" width="90" height="20" as="geometry" />
        </mxCell>
        <mxCell id="-edVvn-x7W4A-X9uvPil-81" value="&lt;font&gt;&lt;span style=&quot;font-size: 10px&quot;&gt;&lt;b&gt;Keluar&lt;/b&gt;&lt;/span&gt;&lt;br&gt;&lt;/font&gt;" style="text;html=1;resizable=0;autosize=1;align=center;verticalAlign=middle;points=[];fillColor=none;strokeColor=none;rounded=0;" vertex="1" parent="1">
          <mxGeometry x="535" y="910" width="50" height="20" as="geometry" />
        </mxCell>
        <mxCell id="-edVvn-x7W4A-X9uvPil-82" value="&lt;font&gt;&lt;span style=&quot;font-size: 10px&quot;&gt;&lt;b&gt;Selesai&lt;/b&gt;&lt;/span&gt;&lt;br&gt;&lt;/font&gt;" style="text;html=1;resizable=0;autosize=1;align=center;verticalAlign=middle;points=[];fillColor=none;strokeColor=none;rounded=0;" vertex="1" parent="1">
          <mxGeometry x="775" y="1100" width="50" height="20" as="geometry" />
        </mxCell>
        <mxCell id="-edVvn-x7W4A-X9uvPil-83" value="Activity Diagram kamus" style="text;html=1;resizable=0;autosize=1;align=center;verticalAlign=middle;points=[];fillColor=none;strokeColor=none;rounded=0;fontSize=10;fontColor=#007FFF;" vertex="1" parent="1">
          <mxGeometry y="10" width="120" height="20" as="geometry" />
        </mxCell>
        <mxCell id="-edVvn-x7W4A-X9uvPil-84" value="&lt;font&gt;&lt;span style=&quot;font-size: 10px&quot;&gt;&lt;b&gt;kosa kata&lt;/b&gt;&lt;/span&gt;&lt;span style=&quot;color: rgba(0 , 0 , 0 , 0) ; font-family: monospace ; font-size: 0px&quot;&gt;%3CmxGraphModel%3E%3Croot%3E%3CmxCell%20id%3D%220%22%2F%3E%3CmxCell%20id%3D%221%22%20parent%3D%220%22%2F%3E%3CmxCell%20id%3D%222%22%20value%3D%22%26lt%3Bfont%26gt%3B%26lt%3Bspan%20style%3D%26quot%3Bfont-size%3A%2010px%26quot%3B%26gt%3B%26lt%3Bb%26gt%3Btampil%20kata-kata%26lt%3B%2Fb%26gt%3B%26lt%3B%2Fspan%26gt%3B%26lt%3Bbr%26gt%3B%26lt%3B%2Ffont%26gt%3B%22%20style%3D%22text%3Bhtml%3D1%3Bresizable%3D0%3Bautosize%3D1%3Balign%3Dcenter%3BverticalAlign%3Dmiddle%3Bpoints%3D%5B%5D%3BfillColor%3Dnone%3BstrokeColor%3Dnone%3Brounded%3D0%3B%22%20vertex%3D%221%22%20parent%3D%221%22%3E%3CmxGeometry%20x%3D%22515%22%20y%3D%22765%22%20width%3D%2290%22%20height%3D%2220%22%20as%3D%22geometry%22%2F%3E%3C%2FmxCell%3E%3C%2Froot%3E%3C%2FmxGraphModel%3E&lt;/span&gt;&lt;br&gt;&lt;/font&gt;" style="text;html=1;resizable=0;autosize=1;align=center;verticalAlign=middle;points=[];fillColor=none;strokeColor=none;rounded=0;" vertex="1" parent="1">
          <mxGeometry x="290" y="765" width="60" height="20" as="geometry" />
        </mxCell>
        <mxCell id="-edVvn-x7W4A-X9uvPil-85" value="&lt;font&gt;&lt;span style=&quot;font-size: 10px&quot;&gt;&lt;b&gt;Pilih keluar&lt;/b&gt;&lt;/span&gt;&lt;br&gt;&lt;/font&gt;" style="text;html=1;resizable=0;autosize=1;align=center;verticalAlign=middle;points=[];fillColor=none;strokeColor=none;rounded=0;" vertex="1" parent="1">
          <mxGeometry x="205" y="915" width="70" height="20" as="geometry" />
        </mxCell>
        <mxCell id="-edVvn-x7W4A-X9uvPil-86" value="&lt;font&gt;&lt;span style=&quot;font-size: 10px&quot;&gt;&lt;b&gt;Ya&lt;/b&gt;&lt;/span&gt;&lt;br&gt;&lt;/font&gt;" style="text;html=1;resizable=0;autosize=1;align=center;verticalAlign=middle;points=[];fillColor=none;strokeColor=none;rounded=0;" vertex="1" parent="1">
          <mxGeometry x="160" y="740" width="30" height="20" as="geometry" />
        </mxCell>
        <mxCell id="-edVvn-x7W4A-X9uvPil-87" value="&lt;font&gt;&lt;span style=&quot;font-size: 10px&quot;&gt;&lt;b&gt;Tidak&lt;/b&gt;&lt;/span&gt;&lt;br&gt;&lt;/font&gt;" style="text;html=1;resizable=0;autosize=1;align=center;verticalAlign=middle;points=[];fillColor=none;strokeColor=none;rounded=0;" vertex="1" parent="1">
          <mxGeometry x="120" y="850" width="40" height="20" as="geometry" />
        </mxCell>
      </root>
    </mxGraphModel>
  </diagram>
</mxfile>
